# xmcd CD database file
#
# Track frame offsets:
#	150
#	12550
#	25137
#	36755
#	50982
#	71277
#	83250
#	94312
#	105365
#	127975
#	140137
#	153482
#	164130
#	178590
#	187197
#
# Disc length: 2675 seconds
#
# Revision: 1
# Processed by: cddbd v1.4PL0 Copyright (c) Steve Scherf et al.
# Submitted via: CDex 1.50beta9
#
DISCID=cd0a710f
DTITLE=Various Artist - WESTERN LOVE SONGS 3
DYEAR=2002
DGENRE=Country
TTITLE0=FIVE HUNDRED MILES
TTITLE1=TODAY
TTITLE2=RHYTHM OF THE RAIN
TTITLE3=THE EXODUS SONG
TTITLE4=THE HOUSE OF RISING SUN
TTITLE5=WILL YOU STILL LOVE ME TOMORROW
TTITLE6=ONLY THE LONELY
TTITLE7=RED RIVER VALLEY
TTITLE8=THOSE WERE THE DAYS
TTITLE9=IF YOU LOVE ME
TTITLE10=THE GREEN LEAVES OF SUMMER
TTITLE11=DIANA
TTITLE12=TEA FOR TWO
TTITLE13=DEAR JOHN LETTER
TTITLE14=PATA PATA
EXTD=YEAR: 2002
EXTT0=
EXTT1=
EXTT2=
EXTT3=
EXTT4=
EXTT5=
EXTT6=
EXTT7=
EXTT8=
EXTT9=
EXTT10=
EXTT11=
EXTT12=
EXTT13=
EXTT14=
PLAYORDER=
